Coordinates
version=1
nRows=12
nColumns=46
inDegrees=yes

Units are S.I. units (second, meters, Newtons, ...)
Angles are in degrees.

endheader
time	pelvis_tilt	pelvis_list	pelvis_rotation	pelvis_tx	pelvis_ty	pelvis_tz	bb_angle	bb_tx	bb_ty	bb_tz	hip_flexion_r	hip_adduction_r	hip_rotation_r	knee_angle_r	knee_angle_r_beta	ankle_angle_r	subtalar_angle_r	mtp_angle_r	crank_angle_r	hip_flexion_l	hip_adduction_l	hip_rotation_l	knee_angle_l	knee_angle_l_beta	ankle_angle_l	subtalar_angle_l	mtp_angle_l	crank_angle_l	lumbar_extension	lumbar_bending	lumbar_rotation	arm_flex_r	arm_add_r	arm_rot_r	elbow_flex_r	pro_sup_r	wrist_flex_r	wrist_dev_r	arm_flex_l	arm_add_l	arm_rot_l	elbow_flex_l	pro_sup_l	wrist_flex_l	wrist_dev_l
      5.00500000	    -16.14192250	      3.42724728	      5.10170199	      0.12696057	      1.09849066	     -0.24117143	      0.00000000	      0.50000000	      0.00000000	      0.25000000	     45.81684204	    -10.48070073	     -8.71112990	     33.43404642	      0.58353419	    -15.82717621	     -4.66415932	      0.00000000	      0.00000000	     87.59806929	     -1.90185716	      1.96216966	    114.63465969	      2.00075225	      0.32027798	     -8.61083879	      0.00000000	      0.00000000	    -59.26789684	     -0.96216758	     -8.51637959	     89.73776492	     -4.30838655	     31.22072926	     36.76261769	     22.72600646	      0.00000000	      0.00000000	     89.61827797	    -11.42672187	     35.29583811	     46.65709834	     27.25834649	      0.00000000	      0.00000000
      5.01000000	    -16.28936217	      3.62047079	      5.31254821	      0.12686988	      1.09878888	     -0.23988378	      0.00000000	      0.50000000	      0.00000000	      0.25000000	     45.28807071	    -10.90238824	     -9.27655928	     33.10655359	      0.57781836	    -17.04512513	     -3.80933605	      0.00000000	      0.00000000	     88.89615456	     -1.83760291	      1.80595600	    114.95120504	      2.00627701	      0.65542917	     -8.35148991	      0.00000000	      0.00000000	    -59.16354282	     -1.15226448	     -8.53022329	     89.74275593	     -4.55619627	     31.23143185	     36.61658439	     22.69829554	      0.00000000	      0.00000000	     89.61565639	    -11.09076254	     35.22888922	     46.75174257	     27.26595161	      0.00000000	      0.00000000
      5.01500000	    -16.41338770	      3.78060563	      5.49941103	      0.12665541	      1.09926157	     -0.23866701	      0.00000000	      0.50000000	      0.00000000	      0.25000000	     44.83274412	    -11.27823847	     -9.75879347	     32.95009881	      0.57508771	    -18.25765247	     -3.07642277	      0.00000000	      0.00000000	     90.09921930	     -1.74755366	      1.68668970	    115.09497309	      2.00878623	      0.96840806	     -8.08597075	      0.00000000	      0.00000000	    -59.10248749	     -1.32616245	     -8.55569263	     89.74754575	     -4.78590513	     31.23387614	     36.47603829	     22.67068389	      0.00000000	      0.00000000	     89.61464116	    -10.76296454	     35.15398247	     46.80384650	     27.26606135	      0.00000000	      0.00000000
      5.02000000	    -16.53556600	      3.92226767	      5.69130445	      0.12634118	      1.09990796	     -0.23758150	      0.00000000	      0.50000000	      0.00000000	      0.25000000	     44.46896846	    -11.65143778	    -10.19770248	     32.95767731	      0.57521998	    -19.53596892	     -2.42179955	      0.00000000	      0.00000000	     91.19519867	     -1.61711852	      1.57346840	    115.06312088	      2.00823031	      1.26634636	     -7.82908649	      0.00000000	      0.00000000	    -59.05255754	     -1.42595906	     -8.51467379	     89.75208214	     -5.01524804	     31.23733545	     36.35991588	     22.64705320	      0.00000000	      0.00000000	     89.61325871	    -10.43843592	     35.03662796	     46.85178701	     27.26296647	      0.00000000	      0.00000000
      5.02500000	    -16.67015381	      4.02640907	      5.92916705	      0.12593056	      1.10065407	     -0.23685689	      0.00000000	      0.50000000	      0.00000000	      0.25000000	     44.19291429	    -12.02031851	    -10.54719973	     33.08071282	      0.57736736	    -20.76611403	     -1.98954046	      0.00000000	      0.00000000	     92.21917567	     -1.28689647	      1.55246050	    114.87271243	      2.00490705	      1.56521204	     -7.46562655	      0.00000000	      0.00000000	    -59.01001004	     -1.48895074	     -8.22712478	     89.75379495	     -5.79008669	     31.72138096	     36.44099522	     22.66866209	      0.00000000	      0.00000000	     89.61258628	     -9.20934675	     33.78701843	     46.27295548	     27.05146628	      0.00000000	      0.00000000
      5.03000000	    -16.78255349	      4.18682878	      6.11037826	      0.12543750	      1.10156451	     -0.23614117	      0.00000000	      0.50000000	      0.00000000	      0.25000000	     44.07611135	    -12.40398804	    -10.79545992	     33.50095405	      0.58470195	    -22.04671955	     -1.79106629	      0.00000000	      0.00000000	     93.04337828	     -0.99521876	      1.44681794	    114.47110967	      1.99789776	      1.82239792	     -7.40258788	      0.00000000	      0.00000000	    -59.03172652	     -1.57749131	     -8.31988044	     89.75486193	     -5.98476192	     31.69753137	     36.47919906	     22.67196416	      0.00000000	      0.00000000	     89.61114187	     -9.10803229	     33.70578685	     46.49463920	     27.08049762	      0.00000000	      0.00000000
      5.03500000	    -16.82566494	      4.30311813	      6.22571172	      0.12492441	      1.10258952	     -0.23552307	      0.00000000	      0.50000000	      0.00000000	      0.25000000	     44.02974110	    -12.69229855	    -10.89279819	     34.13165687	      0.59570979	    -23.37738761	     -1.69728163	      0.00000000	      0.00000000	     93.68942553	     -0.72640697	      1.38667986	    113.98373848	      1.98939153	      2.19308922	     -7.35307029	      0.00000000	      0.00000000	    -59.11917142	     -1.62408620	     -8.35680579	     89.75592772	     -6.13458128	     31.66237914	     36.54577592	     22.68094263	      0.00000000	      0.00000000	     89.60891482	     -9.07477218	     33.60163046	     46.65349328	     27.09964276	      0.00000000	      0.00000000
      5.04000000	    -16.95853703	      4.50828785	      6.43382918	      0.12430609	      1.10370332	     -0.23533090	      0.00000000	      0.50000000	      0.00000000	      0.25000000	     44.20597065	    -13.11482198	    -10.92234515	     34.98765040	      0.61064970	    -24.73176921	     -2.15511514	      0.00000000	      0.00000000	     94.22327344	     -0.22293207	      1.24455824	    113.29800014	      1.97742314	      2.74941134	     -7.25400835	      0.00000000	      0.00000000	    -59.17630623	     -1.66705665	     -8.54677449	     89.75585105	     -6.35505060	     31.59717442	     36.72515635	     22.70834818	      0.00000000	      0.00000000	     89.61087967	     -8.99486358	     33.41627344	     46.90326252	     27.12899074	      0.00000000	      0.00000000
      5.04500000	    -17.09734299	      4.76901236	      6.61423769	      0.12366178	      1.10488201	     -0.23518195	      0.00000000	      0.50000000	      0.00000000	      0.25000000	     44.50726920	    -13.48232435	    -10.64510738	     36.02646000	      0.62878034	    -26.01409264	     -3.18030162	      0.00000000	      0.00000000	     94.57027569	      0.29112180	      1.05653971	    112.42711491	      1.96222332	      3.36319291	     -7.22095969	      0.00000000	      0.00000000	    -59.24925228	     -1.75272174	     -8.81595502	     89.75357263	     -6.59640210	     31.52723193	     37.01657825	     22.75469765	      0.00000000	      0.00000000	     89.61353822	     -8.94797771	     33.09415660	     47.24773169	     27.16368275	      0.00000000	      0.00000000
      5.05000000	    -17.13247736	      4.90172965	      6.72823964	      0.12329984	      1.10637463	     -0.23475381	      0.00000000	      0.50000000	      0.00000000	      0.25000000	     44.74246018	    -13.62021426	    -10.32425895	     37.12313156	      0.64792087	    -27.46703977	     -4.40960480	      0.00000000	      0.00000000	     94.64410651	      0.70637213	      1.02514442	    111.43691944	      1.94494115	      4.13226931	     -7.17339705	      0.00000000	      0.00000000	    -59.44332639	     -1.81985699	     -8.98165996	     89.75208720	     -6.74484948	     31.43995359	     37.31839795	     22.80166546	      0.00000000	      0.00000000	     89.61323080	     -8.95476476	     32.75287413	     47.61528650	     27.19801291	      0.00000000	      0.00000000
      5.05500000	    -17.20743809	      5.09662731	      6.81004523	      0.12272311	      1.10764532	     -0.23474167	      0.00000000	      0.50000000	      0.00000000	      0.25000000	     45.20262609	    -13.80146597	     -9.84005635	     38.49811379	      0.67191884	    -28.76885385	     -5.73293812	      0.00000000	      0.00000000	     94.60038845	      1.19321096	      0.93923603	    110.31170013	      1.92530237	      5.06945839	     -7.06478859	      0.00000000	      0.00000000	    -59.56194883	     -1.90960623	     -9.16185980	     89.75297430	     -6.89100597	     31.32766140	     37.57447693	     22.83733898	      0.00000000	      0.00000000	     89.61740190	     -8.94414357	     32.48356669	     47.93833192	     27.22669296	      0.00000000	      0.00000000
      5.06000000	    -17.30430556	      5.26510902	      6.87800405	      0.12210697	      1.10880439	     -0.23482756	      0.00000000	      0.50000000	      0.00000000	      0.25000000	     45.78727982	    -13.91523134	     -9.24471846	     40.02619376	      0.69858887	    -29.92433038	     -7.13350897	      0.00000000	      0.00000000	     94.41336743	      1.69240749	      0.89389561	    108.99904287	      1.90239218	      6.12742016	     -6.97079365	      0.00000000	      0.00000000	    -59.65694863	     -2.00306742	     -9.33668777	     89.75310434	     -7.01569500	     31.19766966	     37.78269596	     22.86240345	      0.00000000	      0.00000000	     89.62216086	     -8.93564371	     32.26958367	     48.21453042	     27.24930163	      0.00000000	      0.00000000
